<mxfile host="65bd71144e">
    <diagram id="duuuLI2f266IBfNkNlS0" name="Page-1">
        <mxGraphModel dx="730" dy="598" grid="1" gridSize="10" guides="1" tooltips="1" connect="1" arrows="1" fold="1" page="1" pageScale="1" pageWidth="850" pageHeight="1100" math="0" shadow="0">
            <root>
                <mxCell id="0"/>
                <mxCell id="1" parent="0"/>
                <mxCell id="2" value="" style="whiteSpace=wrap;html=1;" vertex="1" parent="1">
                    <mxGeometry x="110" y="80" width="460" height="530" as="geometry"/>
                </mxCell>
                <mxCell id="3" value="Heading" style="whiteSpace=wrap;html=1;" vertex="1" parent="1">
                    <mxGeometry x="170" y="95" width="380" height="30" as="geometry"/>
                </mxCell>
                <mxCell id="4" value="logo" style="ellipse;whiteSpace=wrap;html=1;" vertex="1" parent="1">
                    <mxGeometry x="120" y="90" width="40" height="40" as="geometry"/>
                </mxCell>
                <mxCell id="5" value="" style="whiteSpace=wrap;html=1;" vertex="1" parent="1">
                    <mxGeometry x="140" y="180" width="120" height="150" as="geometry"/>
                </mxCell>
                <mxCell id="7" value="" style="whiteSpace=wrap;html=1;" vertex="1" parent="1">
                    <mxGeometry x="280" y="180" width="120" height="150" as="geometry"/>
                </mxCell>
                <mxCell id="8" value="" style="whiteSpace=wrap;html=1;" vertex="1" parent="1">
                    <mxGeometry x="425" y="180" width="120" height="150" as="geometry"/>
                </mxCell>
                <mxCell id="9" value="radio" style="whiteSpace=wrap;html=1;" vertex="1" parent="1">
                    <mxGeometry x="165" y="250" width="70" height="10" as="geometry"/>
                </mxCell>
                <mxCell id="10" value="radio" style="whiteSpace=wrap;html=1;" vertex="1" parent="1">
                    <mxGeometry x="165" y="270" width="70" height="10" as="geometry"/>
                </mxCell>
                <mxCell id="11" value="radio" style="whiteSpace=wrap;html=1;" vertex="1" parent="1">
                    <mxGeometry x="165" y="290" width="70" height="10" as="geometry"/>
                </mxCell>
                <mxCell id="12" value="Heading" style="whiteSpace=wrap;html=1;" vertex="1" parent="1">
                    <mxGeometry x="165" y="200" width="70" height="20" as="geometry"/>
                </mxCell>
                <mxCell id="13" value="radio" style="whiteSpace=wrap;html=1;" vertex="1" parent="1">
                    <mxGeometry x="305" y="250" width="70" height="10" as="geometry"/>
                </mxCell>
                <mxCell id="14" value="radio" style="whiteSpace=wrap;html=1;" vertex="1" parent="1">
                    <mxGeometry x="305" y="270" width="70" height="10" as="geometry"/>
                </mxCell>
                <mxCell id="15" value="radio" style="whiteSpace=wrap;html=1;" vertex="1" parent="1">
                    <mxGeometry x="305" y="290" width="70" height="10" as="geometry"/>
                </mxCell>
                <mxCell id="16" value="Heading" style="whiteSpace=wrap;html=1;" vertex="1" parent="1">
                    <mxGeometry x="305" y="200" width="70" height="20" as="geometry"/>
                </mxCell>
                <mxCell id="17" value="radio" style="whiteSpace=wrap;html=1;" vertex="1" parent="1">
                    <mxGeometry x="450" y="250" width="70" height="10" as="geometry"/>
                </mxCell>
                <mxCell id="18" value="radio" style="whiteSpace=wrap;html=1;" vertex="1" parent="1">
                    <mxGeometry x="450" y="270" width="70" height="10" as="geometry"/>
                </mxCell>
                <mxCell id="19" value="radio" style="whiteSpace=wrap;html=1;" vertex="1" parent="1">
                    <mxGeometry x="450" y="290" width="70" height="10" as="geometry"/>
                </mxCell>
                <mxCell id="20" value="Heading" style="whiteSpace=wrap;html=1;" vertex="1" parent="1">
                    <mxGeometry x="450" y="200" width="70" height="20" as="geometry"/>
                </mxCell>
                <mxCell id="21" value="Button" style="whiteSpace=wrap;html=1;" vertex="1" parent="1">
                    <mxGeometry x="140" y="350" width="70" height="30" as="geometry"/>
                </mxCell>
                <mxCell id="22" value="Sales heading" style="whiteSpace=wrap;html=1;" vertex="1" parent="1">
                    <mxGeometry x="140" y="410" width="90" height="30" as="geometry"/>
                </mxCell>
                <mxCell id="23" value="Receipt" style="whiteSpace=wrap;html=1;" vertex="1" parent="1">
                    <mxGeometry x="145" y="460" width="80" height="10" as="geometry"/>
                </mxCell>
                <mxCell id="24" value="Receipt" style="whiteSpace=wrap;html=1;" vertex="1" parent="1">
                    <mxGeometry x="145" y="480" width="80" height="10" as="geometry"/>
                </mxCell>
                <mxCell id="25" value="Receipt" style="whiteSpace=wrap;html=1;" vertex="1" parent="1">
                    <mxGeometry x="145" y="500" width="80" height="10" as="geometry"/>
                </mxCell>
            </root>
        </mxGraphModel>
    </diagram>
</mxfile>